<svg id="Layer_1" data-name="Layer 1" xmlns="http://www.w3.org/2000/svg" viewBox="0 0 100 100"><defs><style>.cls-1{fill:#fff;}</style></defs><title>Untitled-2</title><path class="cls-1" d="M72.74,66.38a21.36,21.36,0,0,1-8.21-1.57c-6.82-2.86-11.82-1.6-11.87-1.58A1.31,1.31,0,0,1,51,61.95l0.05-27.08c0-.73-0.19-1.6-1.07-1.6-1.2,0-1.26,1.34-1.26,1.6L48.61,61.94a1.31,1.31,0,0,1-1.56,1.28A22.66,22.66,0,0,0,35.47,64.8,22.49,22.49,0,0,1,23,66a1.31,1.31,0,0,1-1-1.28V30.76a1.31,1.31,0,0,1,1.44-1.31c0.07,0,7.18.69,10.81-1,7.06-3.24,11.49-1.87,11.68-1.81a1.31,1.31,0,0,1-.8,2.5c-0.09,0-3.78-1.06-9.78,1.69-3.21,1.47-8.26,1.43-10.73,1.31v31.4a20,20,0,0,0,9.89-1.19A25.77,25.77,0,0,1,46,60.47l0.12-25.6A3.93,3.93,0,0,1,50,30.64c2.21,0,3.7,1.7,3.7,4.23l0,25.54a24.44,24.44,0,0,1,11.9,2,19.76,19.76,0,0,0,9.89,1.2V32.1c-2.47.12-7.52,0.16-10.73-1.31-6-2.77-9.75-1.7-9.79-1.69a1.31,1.31,0,0,1-.8-2.5c0.19-.06,4.62-1.43,11.68,1.81,3.64,1.67,10.74,1,10.81,1a1.31,1.31,0,0,1,1.44,1.31v34A1.31,1.31,0,0,1,77,66a20.55,20.55,0,0,1-4.3.41h0ZM28.13,37.53A22.52,22.52,0,0,0,35.4,36.4a24.06,24.06,0,0,1,8.69-1.56,0.88,0.88,0,1,0,.12-1.75,25.27,25.27,0,0,0-9.4,1.65,22.33,22.33,0,0,1-8.17,1,0.88,0.88,0,0,0-.15,1.74c0.07,0,.68.06,1.63,0.06h0Zm0,5.26a22.5,22.5,0,0,0,7.28-1.13A24.08,24.08,0,0,1,44.1,40.1a0.88,0.88,0,0,0,.12-1.75A25.27,25.27,0,0,0,34.82,40a22.31,22.31,0,0,1-8.17,1,0.88,0.88,0,0,0-.15,1.74c0.07,0,.68.06,1.63,0.06h0Zm0,5.26a22.52,22.52,0,0,0,7.28-1.13,24.06,24.06,0,0,1,8.69-1.56,0.88,0.88,0,1,0,.12-1.75,25.27,25.27,0,0,0-9.4,1.65,22.33,22.33,0,0,1-8.17,1A0.88,0.88,0,0,0,26.5,48c0.07,0,.68.06,1.63,0.06h0Zm0,5.26a22.5,22.5,0,0,0,7.28-1.13,24.08,24.08,0,0,1,8.69-1.56,0.88,0.88,0,1,0,.12-1.75,25.27,25.27,0,0,0-9.4,1.65,22.36,22.36,0,0,1-8.17,1,0.88,0.88,0,0,0-.15,1.74c0.07,0,.68.06,1.63,0.06h0Zm0,5.26a22.5,22.5,0,0,0,7.28-1.13,24.08,24.08,0,0,1,8.69-1.56,0.88,0.88,0,1,0,.12-1.75,25.26,25.26,0,0,0-9.4,1.65,22.33,22.33,0,0,1-8.17,1,0.88,0.88,0,0,0-.15,1.74c0.07,0,.68.06,1.63,0.06h0Zm43.69-21c0.95,0,1.57-.05,1.63-0.06a0.88,0.88,0,1,0-.15-1.74,22.32,22.32,0,0,1-8.17-1,25.28,25.28,0,0,0-9.4-1.65,0.88,0.88,0,1,0,.12,1.75,23.88,23.88,0,0,1,8.69,1.56,22.49,22.49,0,0,0,7.27,1.13h0Zm0,5.26c0.95,0,1.57-.05,1.63-0.06A0.88,0.88,0,1,0,73.3,41a22.34,22.34,0,0,1-8.17-1,25.28,25.28,0,0,0-9.4-1.65,0.88,0.88,0,0,0,.12,1.75,23.88,23.88,0,0,1,8.69,1.56,22.53,22.53,0,0,0,7.27,1.13h0Zm0,5.26c0.95,0,1.57-.05,1.63-0.06a0.88,0.88,0,1,0-.15-1.74,22.32,22.32,0,0,1-8.17-1,25.28,25.28,0,0,0-9.4-1.65,0.88,0.88,0,1,0,.12,1.75,23.88,23.88,0,0,1,8.69,1.56A22.49,22.49,0,0,0,71.82,48h0Zm0,5.26c0.95,0,1.57-.05,1.63-0.06a0.88,0.88,0,1,0-.15-1.74,22.39,22.39,0,0,1-8.17-1,25.25,25.25,0,0,0-9.4-1.65,0.88,0.88,0,0,0,.12,1.75,23.86,23.86,0,0,1,8.69,1.56,22.55,22.55,0,0,0,7.27,1.13h0Zm0,5.26c0.95,0,1.57-.05,1.63-0.06a0.88,0.88,0,1,0-.15-1.74,22.4,22.4,0,0,1-8.17-1,25.25,25.25,0,0,0-9.4-1.65,0.88,0.88,0,0,0,.12,1.75,23.86,23.86,0,0,1,8.69,1.56,22.5,22.5,0,0,0,7.27,1.13h0ZM49.56,73.75a4,4,0,0,0,3.69-2.46H81.64a1.53,1.53,0,0,0,1.53-1.53V34.84a1.53,1.53,0,0,0-3.07,0V68.22H52a1.53,1.53,0,0,0-1.53,1.53,0.93,0.93,0,1,1-1.86,0,1.53,1.53,0,0,0-1.53-1.53H19.9V34.84a1.53,1.53,0,0,0-3.07,0V69.75a1.53,1.53,0,0,0,1.53,1.53h27.5a4,4,0,0,0,3.69,2.46h0Z"/><path class="cls-1" d="M49.56,74.25a4.49,4.49,0,0,1-4-2.46H18.36a2,2,0,0,1-2-2V34.84a2,2,0,0,1,4.07,0V67.72h26.7a2,2,0,0,1,2,2,0.43,0.43,0,1,0,.86,0,2,2,0,0,1,2-2H79.6V34.84a2,2,0,0,1,4.07,0V69.75a2,2,0,0,1-2,2H53.57A4.48,4.48,0,0,1,49.56,74.25ZM18.36,33.81a1,1,0,0,0-1,1V69.75a1,1,0,0,0,1,1H46.2l0.13,0.31a3.5,3.5,0,0,0,6.46,0l0.13-.31H81.64a1,1,0,0,0,1-1V34.84a1,1,0,0,0-2.07,0V68.72H52a1,1,0,0,0-1,1,1.43,1.43,0,1,1-2.86,0,1,1,0,0,0-1-1H19.4V34.84A1,1,0,0,0,18.36,33.81ZM72.74,66.88a21.61,21.61,0,0,1-8.41-1.61c-6.63-2.78-11.5-1.57-11.54-1.56a1.82,1.82,0,0,1-2.28-1.76l0.05-27.08c0-1.1-.43-1.1-0.57-1.1a0.93,0.93,0,0,0-.76,1.1L49.11,61.95a1.8,1.8,0,0,1-.66,1.39,1.82,1.82,0,0,1-1.49.38,22.1,22.1,0,0,0-11.29,1.55,23,23,0,0,1-12.81,1.19,1.8,1.8,0,0,1-1.41-1.77V30.76a1.81,1.81,0,0,1,2-1.8c0.29,0,7.12.64,10.56-.94,7.22-3.31,11.85-1.89,12-1.83a1.81,1.81,0,0,1,1.17,2.29,1.82,1.82,0,0,1-2.27,1.17s-3.62-1-9.42,1.67c-3.06,1.4-7.65,1.48-10.43,1.38V63.13a19.19,19.19,0,0,0,9.2-1.21,26.45,26.45,0,0,1,11.22-2l0-4.7a1.38,1.38,0,0,1-1.45,1.14,23.64,23.64,0,0,0-8.49,1.53,22.83,22.83,0,0,1-7.44,1.16c-1,0-1.67-.06-1.68-0.06a1.35,1.35,0,0,1-.92-0.48,1.38,1.38,0,0,1,1.17-2.26,21.88,21.88,0,0,0,8-.95,25.71,25.71,0,0,1,9.61-1.68,1.38,1.38,0,0,1,1.26,1.15l0.1-19.92A4.41,4.41,0,0,1,50,30.14c2.51,0,4.2,1.9,4.2,4.73l0,25a25.35,25.35,0,0,1,11.59,2.06,19,19,0,0,0,9.2,1.21V32.62c-2.78.1-7.38,0-10.43-1.38-5.78-2.65-9.29-1.71-9.44-1.67A1.81,1.81,0,0,1,54,26.12c0.19-.06,4.79-1.5,12,1.83,3.47,1.6,10.49.95,10.56,0.94a1.81,1.81,0,0,1,2,1.8v34a1.81,1.81,0,0,1-1.41,1.77A21,21,0,0,1,72.74,66.88Zm-17-4.45a23.4,23.4,0,0,1,9,1.91,20.64,20.64,0,0,0,8,1.53,19.86,19.86,0,0,0,4.18-.4,0.81,0.81,0,0,0,.64-0.79v-34a0.81,0.81,0,0,0-.27-0.6,0.79,0.79,0,0,0-.63-0.21c-0.3,0-7.36.68-11.07-1C58.7,25.69,54.46,27,54.28,27.07a0.81,0.81,0,0,0-.52,1,0.82,0.82,0,0,0,1,.53c0.17,0,4-1.09,10.14,1.72,3.05,1.4,7.88,1.4,10.49,1.27l0.52,0V64l-0.44.06a20.17,20.17,0,0,1-10.15-1.23A24,24,0,0,0,53.7,60.9L53.15,61,53.2,34.87c0-2.27-1.25-3.73-3.2-3.73a3.45,3.45,0,0,0-3.39,3.72L46.48,61,46,61a25.28,25.28,0,0,0-11.3,1.88A20.38,20.38,0,0,1,24.5,64.07L24.07,64V31.64l0.53,0c2.6,0.13,7.43.14,10.49-1.27,6.13-2.82,10-1.76,10.13-1.72a0.82,0.82,0,0,0,1-.52,0.81,0.81,0,0,0-.52-1c-0.18-.06-4.44-1.37-11.32,1.79C30.79,30.58,24.09,30,23.34,30a0.81,0.81,0,0,0-.9.81V64.69a0.81,0.81,0,0,0,.63.79,21.94,21.94,0,0,0,12.21-1.14,23.2,23.2,0,0,1,11.87-1.6,0.82,0.82,0,0,0,.66-0.17,0.8,0.8,0,0,0,.29-0.62l0.13-27.07A1.85,1.85,0,0,1,50,32.77c0.47,0,1.57.2,1.57,2.1L51.52,61.95a0.81,0.81,0,0,0,1,.79A13.62,13.62,0,0,1,55.7,62.43ZM26.57,57.25a0.38,0.38,0,0,0-.37.34,0.38,0.38,0,0,0,.09.28,0.37,0.37,0,0,0,.25.13s0.61,0.06,1.59.06A21.82,21.82,0,0,0,35.24,57a24.67,24.67,0,0,1,8.89-1.58A0.39,0.39,0,0,0,44.53,55a0.37,0.37,0,0,0-.09-0.27,0.37,0.37,0,0,0-.26-0.13A24.51,24.51,0,0,0,35,56.25a22.65,22.65,0,0,1-8.38,1h0Zm45.25,1.81a22.83,22.83,0,0,1-7.44-1.16,23.57,23.57,0,0,0-8.49-1.53,1.38,1.38,0,0,1-.19-2.75,25.92,25.92,0,0,1,9.6,1.68,21.84,21.84,0,0,0,7.95.95A1.38,1.38,0,1,1,73.5,59C73.34,59,72.73,59.06,71.82,59.06ZM56.35,55.37A25.63,25.63,0,0,1,64.72,57a21.85,21.85,0,0,0,7.1,1.1c0.87,0,1.45,0,1.58-.05a0.38,0.38,0,0,0,.36-0.41,0.37,0.37,0,0,0-.41-0.34,22.9,22.9,0,0,1-8.38-1,24.85,24.85,0,0,0-9.2-1.62,0.37,0.37,0,0,0-.26.13,0.38,0.38,0,0,0,.31.62h0.53ZM71.82,53.8a22.88,22.88,0,0,1-7.44-1.15,23.52,23.52,0,0,0-8.49-1.53,1.4,1.4,0,0,1-1.46-1.28,1.38,1.38,0,0,1,1.28-1.47,25.88,25.88,0,0,1,9.61,1.68,21.66,21.66,0,0,0,7.94,1,1.38,1.38,0,1,1,.25,2.74C73.35,53.75,72.74,53.8,71.82,53.8ZM56.35,50.11a25.64,25.64,0,0,1,8.36,1.6,21.89,21.89,0,0,0,7.1,1.1c0.87,0,1.46,0,1.58-.05a0.38,0.38,0,0,0,.35-0.41A0.37,0.37,0,0,0,73.34,52,22.74,22.74,0,0,1,65,51a24.83,24.83,0,0,0-9.2-1.63,0.37,0.37,0,0,0-.26.13,0.37,0.37,0,0,0-.09.27,0.36,0.36,0,0,0,.4.35h0.53ZM28.13,53.8c-0.94,0-1.58-.05-1.69-0.06A1.38,1.38,0,0,1,26.7,51a21.83,21.83,0,0,0,8-.95,25.92,25.92,0,0,1,9.6-1.68,1.38,1.38,0,1,1-.19,2.74,24,24,0,0,0-8.49,1.53A22.84,22.84,0,0,1,28.13,53.8ZM26.57,52a0.36,0.36,0,0,0-.24.09,0.38,0.38,0,0,0,.21.66c0.1,0,.7.06,1.59,0.06a21.83,21.83,0,0,0,7.11-1.1,24.65,24.65,0,0,1,8.88-1.58,0.38,0.38,0,0,0,.41-0.35,0.38,0.38,0,0,0-.35-0.4A24.74,24.74,0,0,0,35,51a22.67,22.67,0,0,1-8.38,1h0Zm45.25-3.45a22.84,22.84,0,0,1-7.44-1.16,23.47,23.47,0,0,0-8.49-1.53,1.38,1.38,0,0,1-1.46-1.28,1.38,1.38,0,0,1,1.28-1.47A25.75,25.75,0,0,1,65.3,44.8a21.81,21.81,0,0,0,8,.95,1.38,1.38,0,0,1,.24,2.74S72.85,48.54,71.82,48.54Zm-15.5-3.69a25.78,25.78,0,0,1,8.39,1.6,21.82,21.82,0,0,0,7.11,1.1c1,0,1.58-.06,1.59-0.06a0.38,0.38,0,0,0,.34-0.41,0.37,0.37,0,0,0-.41-0.34,22.92,22.92,0,0,1-8.37-1,24.63,24.63,0,0,0-9.2-1.63,0.38,0.38,0,0,0-.35.4,0.38,0.38,0,0,0,.4.35h0.5Zm-28.2,3.69c-0.89,0-1.49,0-1.64-.06A1.38,1.38,0,0,1,25.2,47a1.36,1.36,0,0,1,.49-0.93,1.39,1.39,0,0,1,1-.32,21.76,21.76,0,0,0,8-.95,25.64,25.64,0,0,1,9.61-1.68,1.38,1.38,0,0,1,1.28,1.47,1.38,1.38,0,0,1-1.47,1.28,23.8,23.8,0,0,0-8.49,1.53A22.87,22.87,0,0,1,28.13,48.54Zm-1.55-1.8a0.38,0.38,0,0,0-.24.09,0.37,0.37,0,0,0-.13.25,0.38,0.38,0,0,0,.34.41c0.17,0,.74.06,1.59,0.06a21.85,21.85,0,0,0,7.11-1.1,24.59,24.59,0,0,1,8.89-1.58,0.38,0.38,0,0,0,.4-0.35,0.38,0.38,0,0,0-.35-0.4A24.53,24.53,0,0,0,35,45.74a23,23,0,0,1-8.37,1h0Zm45.25-3.45a22.86,22.86,0,0,1-7.44-1.16,23.41,23.41,0,0,0-8.49-1.53,1.38,1.38,0,0,1-.19-2.74,25.89,25.89,0,0,1,9.61,1.68,22,22,0,0,0,8,.95,1.38,1.38,0,0,1,.24,2.74C73.27,43.24,72.67,43.29,71.82,43.29Zm-15.5-3.69a25.79,25.79,0,0,1,8.39,1.6,21.84,21.84,0,0,0,7.1,1.1c0.9,0,1.49,0,1.58-.06a0.38,0.38,0,0,0,.35-0.41,0.39,0.39,0,0,0-.41-0.34,22.64,22.64,0,0,1-8.38-1,24.81,24.81,0,0,0-9.2-1.63,0.38,0.38,0,0,0,.06.75h0.5Zm-28.2,3.69c-1,0-1.65-.06-1.68-0.06a1.38,1.38,0,0,1,.24-2.74,21.82,21.82,0,0,0,8-.95,25.65,25.65,0,0,1,9.61-1.68,1.38,1.38,0,0,1-.19,2.74,23.63,23.63,0,0,0-8.49,1.53A22.86,22.86,0,0,1,28.13,43.29Zm-1.56-1.81a0.38,0.38,0,0,0,0,.75s0.61,0.06,1.59.06a21.84,21.84,0,0,0,7.11-1.1,24.79,24.79,0,0,1,8.89-1.58,0.38,0.38,0,1,0,.06-0.75A24.49,24.49,0,0,0,35,40.48a22.62,22.62,0,0,1-8.38,1h0ZM71.82,38a22.82,22.82,0,0,1-7.44-1.16,23.43,23.43,0,0,0-8.49-1.53,1.38,1.38,0,0,1-.19-2.74,25.73,25.73,0,0,1,9.61,1.68,21.81,21.81,0,0,0,8,.95A1.38,1.38,0,0,1,73.5,38S72.85,38,71.82,38Zm-15.5-3.69a25.77,25.77,0,0,1,8.39,1.6,21.82,21.82,0,0,0,7.1,1.1c1,0,1.58-.05,1.59-0.06a0.38,0.38,0,0,0,.34-0.41,0.37,0.37,0,0,0-.41-0.34,22.91,22.91,0,0,1-8.38-1,24.59,24.59,0,0,0-9.2-1.63,0.38,0.38,0,1,0,.05.75h0.5ZM28.13,38c-0.85,0-1.45,0-1.67-.06a1.38,1.38,0,0,1-1.26-1.49,1.37,1.37,0,0,1,1.49-1.25,21.82,21.82,0,0,0,8-.95,25.65,25.65,0,0,1,9.61-1.68,1.38,1.38,0,0,1,1.28,1.47,1.38,1.38,0,0,1-1.47,1.28,23.8,23.8,0,0,0-8.49,1.53A22.86,22.86,0,0,1,28.13,38Zm-1.56-1.8a0.37,0.37,0,0,0-.24.09,0.37,0.37,0,0,0-.13.25,0.38,0.38,0,0,0,.34.41c0.09,0,.68.05,1.59,0.05a21.85,21.85,0,0,0,7.11-1.1,24.57,24.57,0,0,1,8.89-1.58,0.38,0.38,0,0,0,.4-0.35,0.38,0.38,0,0,0-.35-0.4A24.52,24.52,0,0,0,35,35.22a22.61,22.61,0,0,1-8.38,1h0Z"/><path class="cls-1" d="M50,7A43,43,0,1,1,7,50,43,43,0,0,1,50,7m0-7a50,50,0,1,0,50,50A50,50,0,0,0,50,0h0Z"/></svg>