<svg id="Layer_1" data-name="Layer 1" xmlns="http://www.w3.org/2000/svg" viewBox="0 0 100 100"><defs><style>.cls-1{fill:#fff;}</style></defs><title>Untitled-2</title><path class="cls-1" d="M50,7A43,43,0,1,1,7,50,43,43,0,0,1,50,7m0-7a50,50,0,1,0,50,50A50,50,0,0,0,50,0h0Z"/><path class="cls-1" d="M68.75,19H31.25C29.73,19,28,20.09,28,21.62V78.38C28,79.91,29.73,81,31.25,81h37.5C70.27,81,71,79.91,71,78.38V21.62C71,20.09,70.27,19,68.75,19ZM67,71H33V26H67V71Z"/><rect class="cls-1" x="37.17" y="30.84" width="20.54" height="1.05"/><rect class="cls-1" x="36.17" y="29.84" width="22.54" height="3.05"/><rect class="cls-1" x="37.17" y="37.04" width="25.67" height="1.05"/><rect class="cls-1" x="36.17" y="36.04" width="27.67" height="3.05"/><rect class="cls-1" x="37.17" y="41.23" width="25.67" height="1.05"/><rect class="cls-1" x="36.17" y="40.23" width="27.67" height="3.05"/><rect class="cls-1" x="37.17" y="45.42" width="25.67" height="1.05"/><rect class="cls-1" x="36.17" y="44.42" width="27.67" height="3.05"/><rect class="cls-1" x="37.17" y="49.61" width="25.67" height="1.05"/><rect class="cls-1" x="36.17" y="48.61" width="27.67" height="3.05"/><rect class="cls-1" x="37.17" y="53.8" width="25.67" height="1.05"/><rect class="cls-1" x="36.17" y="52.8" width="27.67" height="3.05"/><rect class="cls-1" x="37.17" y="57.99" width="25.67" height="1.05"/><rect class="cls-1" x="36.17" y="56.99" width="27.67" height="3.05"/><rect class="cls-1" x="37.17" y="62.18" width="25.67" height="1.05"/><rect class="cls-1" x="36.17" y="61.18" width="27.67" height="3.05"/><rect class="cls-1" x="37.17" y="66.37" width="25.67" height="1.05"/><rect class="cls-1" x="36.17" y="65.37" width="27.67" height="3.05"/></svg>