<svg id="Layer_1" data-name="Layer 1" xmlns="http://www.w3.org/2000/svg" viewBox="0 0 100 100"><defs><style>.cls-1{fill:#fff;}</style></defs><title>Untitled-2</title><path class="cls-1" d="M40.51,58.54a2.54,2.54,0,0,0-.4.33,2.72,2.72,0,0,0,0,3.84l8,8a2.71,2.71,0,0,0,3.84,0l8-8a2.71,2.71,0,0,0-.4-4.17A17.1,17.1,0,0,0,40.51,58.54Z"/><path class="cls-1" d="M30.61,49l-0.19.18a2.72,2.72,0,0,0,0,3.84l1,1a2.71,2.71,0,0,0,3.63.19,23.82,23.82,0,0,1,30,0A2.71,2.71,0,0,0,68.61,54l1-1a2.72,2.72,0,0,0-.2-4A30.58,30.58,0,0,0,30.61,49Z"/><path class="cls-1" d="M20.93,39.44l-0.13.12a2.71,2.71,0,0,0,0,3.84l1,1a2.72,2.72,0,0,0,3.71.13,37.42,37.42,0,0,1,49.08,0,2.72,2.72,0,0,0,3.71-.12l1-1a2.72,2.72,0,0,0-.13-4A44.19,44.19,0,0,0,20.93,39.44Z"/><path class="cls-1" d="M50,7A43,43,0,1,1,7,50,43,43,0,0,1,50,7m0-7a50,50,0,1,0,50,50A50,50,0,0,0,50,0h0Z"/></svg>